<svg width="134" height="20" viewBox="0 0 134 20" xmlns="http://www.w3.org/2000/svg">
    <g fill="none" fill-rule="evenodd">
        <path d="M27.937 4.762h-2.633c-1.8-1.809-4.165-2.793-6.574-2.793-2.45.006-4.774.984-6.58 2.793H9.525C11.494 1.91 15.019 0 18.73 0c3.766-.002 7.298 1.967 9.207 4.762zM119.842 1.905c.721 0 1.193.31 1.79 1.077.406.545.87 1.258 1.135 1.676.329-.514.704-1.065 1.087-1.582.35-.428.78-.605 1.214-.605.78 0 1.591.474 2.128.859.736.56 1.606 1.414 2.096 2.3.279.483.423.88.423 1.26 0 .448-.2.89-.62 1.46a31.495 31.495 0 0 1-1.265 1.588c.6.147 1.247.337 1.856.539.855.279 1.108.92 1.108 1.612 0 1.3-.903 3.27-1.866 4.296-.548.585-.985.859-1.533.859-.317 0-.665-.07-1.095-.209a33.302 33.302 0 0 1-1.913-.699c.038.61.052.908.052 1.922 0 1.62-1.819 1.742-2.844 1.742-.98 0-2.177-.188-3.116-.617-1.056-.511-1.398-1.008-1.398-2.698 0-.676.046-1.155.081-1.648-.58.223-1.208.446-1.823.644-1.554.511-2.228-1.171-2.543-2.143a7.7 7.7 0 0 1-.415-2.482c0-1.685.532-2.255 1.815-2.671.652-.21 1.483-.421 1.96-.546-.386-.469-.797-.994-1.174-1.52-.233-.307-.33-.607-.33-.89 0-.938.962-1.706 1.598-2.167.792-.539 2.266-1.357 3.592-1.357zm-.47 11.939c-.188.198-.425.334-.652.462-.32.194-.78.4-1.266.618.528.547 1.895 1.65 3.925 1.65.46 0 .614-.226.614-.479 0-.34-.335-.519-.863-.677-.667-.204-1.798-.48-1.798-1.329 0-.09.015-.176.04-.245zm7.389-1.75c-.26 0-.502.2-.77.574-.4.57-1.018 1.553-1.827 1.287a.815.815 0 0 1-.233-.112c.132.236.193.498.253.748.074.37.14.872.18 1.435a6.275 6.275 0 0 0 2.07-1.77c.513-.746.797-1.447.797-1.746 0-.294-.284-.415-.47-.415zm-5.093-4.791c-.096.498-.632 1.07-1.425 1.645-.89.637-1.48.801-1.924.741.448.244.83.924 1.135 1.854.181.543.261.935.261 1.28 0 .3-.055.527-.146.71.381-.344 1.149-.499 2.132-.499 1.093 0 1.675.214 1.994.523a1.6 1.6 0 0 1-.11-.643c0-.415.105-.893.29-1.475.338-1.022.72-1.501 1.121-1.715-.512.062-1.22-.261-2.02-.836-.88-.64-1.224-1.145-1.308-1.585zm-5.31.775c-.346.713-.977 2.341-.355 4.203.137.429.407.51.649.432.332-.108.399-.433.39-.972-.018-.692-.102-1.848.716-2.106a.356.356 0 0 1 .204-.039c-.336-.167-.897-.708-1.605-1.518zm8.56-2.029a.469.469 0 0 0-.452.458c0 .223.157.478.387.786.318.422.837 1.038.837 1.608a.858.858 0 0 1-.347.696c.113-.025.225-.033.34-.033.412 0 1.143.114 1.865.302-.115-.79-.566-2.475-2.21-3.652-.16-.114-.295-.165-.42-.165zm-3.197-1.186c-.915 0-2.139.188-3.315 1.036-.233.162-.312.332-.312.47 0 .143.114.47.51.47.568 0 1.33-.497 2.114-.497.735 0 .914.523.94.602.021-.338.32-1.057.937-2.022a5.558 5.558 0 0 0-.874-.06z" fill="#ED1C24"/>
        <path fill="#004785" d="M24.444 17.778h2.223V6.667h-2.223zM22.411 15.475l.129-.084-.543 2.171-.024.016c-.368.232-.987.538-2 .516-1.503-.025-2.509-1.21-2.509-2.943V8.798h-1.908V6.682h1.908V4.39l2.22-1.215v3.507h2.293v2.116h-2.293v5.976c0 .875.322 1.268 1.055 1.268.505 0 1.069-.19 1.672-.567zM11.111 17.778h2.222V6.667h-2.222zM2.31 12.38c0 2.064 1.457 3.55 3.47 3.55.967 0 1.904-.429 2.71-1.242l.048-.052 1.303 1.547-.036.04c-1.081 1.261-2.374 1.872-3.961 1.872-1.594 0-3.048-.527-4.105-1.486C.605 15.57 0 14.107 0 12.379c0-1.73.605-3.192 1.739-4.228 1.057-.96 2.51-1.484 4.105-1.484 1.587 0 2.88.607 3.961 1.869l.036.038-1.303 1.55-.048-.048c-.806-.82-1.743-1.25-2.71-1.25-2.013 0-3.47 1.498-3.47 3.554zM111.111 17.778h-2.588l-1.052-1.926c-.441-.804-.946-1.82-1.158-2.244-.188.424-.777 1.503-1.199 2.265l-1.072 1.905h-2.455l3.389-5.757-3.157-5.354h2.517l.863 1.566c.442.804.967 1.799 1.157 2.222.232-.423.757-1.481 1.178-2.265l.841-1.523h2.504l-3.178 5.354 3.41 5.757zM96.465 6.35c3.128 0 4.805 2.598 4.805 5.647 0 .408-.042.773-.063 1.009H93.59c.232 2.169 1.593 3.064 2.937 3.064.923 0 1.906-.344 2.64-.902l1.199 1.446c-.966.944-2.285 1.481-3.965 1.481-2.583 0-4.973-2.126-4.973-5.862 0-3.822 2.18-5.884 5.036-5.884zm-.147 1.996c-1.449 0-2.495 1.03-2.684 2.835h5.453c-.106-1.546-.985-2.835-2.769-2.835zM89.841 11.276v6.502H87.61v-6.333c0-2.26-.696-3.07-2.13-3.07-1.455 0-2.1 1.045-2.1 2.857v6.546h-2.232v-6.333c0-2.26-.666-3.07-2.101-3.07-1.454 0-2.212 1.045-2.212 2.857v6.546h-2.232V6.584h2.232V7.65c.548-.81 1.58-1.3 2.718-1.3 1.499 0 2.447.575 3.038 1.64.8-1.001 1.666-1.64 3.395-1.64 2.573 0 3.855 1.174 3.855 4.926zM68.214 6.35c2.527 0 4.484 1.223 4.484 3.779v7.73h-2.284v-1.117c-.777.773-1.964 1.353-3.195 1.353-1.835 0-4.044-1.03-4.044-3.8 0-2.513 2.058-3.651 4.628-3.651 1.058 0 1.985.15 2.61.43v-.838c0-1.224-.924-1.911-2.306-1.911-1.166 0-2.073.215-2.959.708l-.864-1.675c1.08-.665 2.332-1.009 3.93-1.009zm-.476 6.205c-1.426 0-2.417.644-2.417 1.675 0 1.117.797 1.868 2.266 1.868 1.187 0 2.309-.73 2.827-1.438v-1.611c-.605-.3-1.467-.494-2.676-.494zM46.31 6.35c2.526 0 4.484 1.223 4.484 3.779v7.73h-2.285v-1.117c-.778.773-1.963 1.353-3.194 1.353-1.836 0-4.045-1.03-4.045-3.8 0-2.513 2.058-3.651 4.628-3.651 1.058 0 1.985.15 2.61.43v-.838c0-1.224-.924-1.911-2.306-1.911-1.166 0-2.073.215-2.959.708l-.864-1.675c1.08-.665 2.332-1.009 3.93-1.009zm-.477 6.205c-1.425 0-2.417.644-2.417 1.675 0 1.117.797 1.868 2.266 1.868 1.187 0 2.309-.73 2.827-1.438v-1.611c-.605-.3-1.467-.494-2.676-.494zM61.905 11.36v6.418h-2.258v-6.333c0-2.26-.853-3.07-2.304-3.07-1.472 0-2.387 1.045-2.387 2.857v6.546h-2.258V6.584h2.258V7.65c.554-.81 1.786-1.3 2.938-1.3 2.603 0 4.01 1.445 4.01 5.01zM32.716 3.175v4.557c.804-.746 1.901-1.3 3.065-1.3 2.392 0 4.536 1.748 4.536 6.013 0 3.838-2.334 5.65-4.642 5.65-1.121 0-2.345-.597-2.96-1.28v1.046h-2.239V4.384l2.24-1.21zm2.663 5.282c-1.037 0-2.113.704-2.684 1.429v4.712c.486.661 1.668 1.472 2.769 1.472 1.566 0 2.662-1.195 2.662-3.561 0-2.815-1.138-4.052-2.747-4.052z"/>
        <path d="M132.38 6.35a1.557 1.557 0 0 1-1.586-1.588c0-.901.686-1.587 1.587-1.587.901 0 1.587.686 1.587 1.587 0 .901-.686 1.587-1.587 1.587zm0-2.92c-.755 0-1.331.576-1.331 1.332 0 .756.576 1.332 1.332 1.332.756 0 1.332-.575 1.332-1.332 0-.757-.576-1.332-1.332-1.332zm.357 1.468.356.7h-.347l-.339-.669h-.334v.668h-.294V3.865h.76c.308 0 .567.163.567.523 0 .273-.145.444-.369.51zm-.207-.747h-.457v.492h.457c.158 0 .277-.075.277-.246 0-.163-.118-.246-.277-.246z" fill="#004785" fill-rule="nonzero"/>
    </g>
</svg>
